<svg width="20" height="20" viewBox="0 0 20 20" xmlns="http://www.w3.org/2000/svg">
<path d="M9.92064 7.61905H11.9048V4.7619H14.881V2.85714H11.9048V0H9.92064V2.85714H6.94444V4.7619H9.92064V7.61905ZM5.95238 16.1905C4.86111 16.1905 3.97817 17.0476 3.97817 18.0952C3.97817 19.1429 4.86111 20 5.95238 20C7.04365 20 7.93651 19.1429 7.93651 18.0952C7.93651 17.0476 7.04365 16.1905 5.95238 16.1905ZM15.873 16.1905C14.7817 16.1905 13.8988 17.0476 13.8988 18.0952C13.8988 19.1429 14.7817 20 15.873 20C16.9643 20 17.8571 19.1429 17.8571 18.0952C17.8571 17.0476 16.9643 16.1905 15.873 16.1905ZM6.12103 13.0952L6.15079 12.981L7.04365 11.4286H14.4345C15.1786 11.4286 15.8333 11.0381 16.1706 10.4476L20 3.77143L18.2738 2.85714H18.2639L17.1726 4.7619L14.4345 9.52381H7.47024L7.34127 9.26667L5.11905 4.7619L4.17659 2.85714L3.24405 0.952381H0V2.85714H1.98413L5.55556 10.0857L4.21627 12.419C4.05754 12.6857 3.96825 13 3.96825 13.3333C3.96825 14.381 4.86111 15.2381 5.95238 15.2381H17.8571V13.3333H6.36905C6.24008 13.3333 6.12103 13.2286 6.12103 13.0952Z"/>
</svg>
